# xmcd
#
# Track frame offsets:
#	150
#	12164
#	31312
#	46203
#	67302
#	79313
#	96597
#	109338
#	119933
#	131145
#	144993
#	158398
#	170739
#	183452
#	196165
#
# Disc length: 2754 seconds
# Revision: 2
# Processed by: cddbd v1.5.2PL0 Copyright (c) Steve Scherf et al.
# Submitted via: dBpowerAMP V12.0
#
DISCID=dc0ac00f
DTITLE=Various Artist - The Essential Classic Country, CD 2
DYEAR=2010
DGENRE=Country
TTITLE0=Johnny Cash - Ring of Fire
TTITLE1=Merle Haggard - Are the Good Times Really Over (I Wish a Buck Was Still Silver)
TTITLE2=George Jones - He Stopped Loving Her Today
TTITLE3=Marty Robbins - El Passo
TTITLE4=Eddy Arnold - Make the World Go Away
TTITLE5=Ray Price - For the Good Times
TTITLE6=Johnny Horton - North to Alaska
TTITLE7=Jim Reeves - He'll Have To Go
TTITLE8=Floyd Cramer - Last Date
TTITLE9=George Jones and Tammy Wynette - Golden Ring
TTITLE10=Dolly Parton - Here You Come Again
TTITLE11=Charlie Rich - The Most Beautiful Girl
TTITLE12=Waylon Jennings - I'm a Ramblin' Man
TTITLE13=Mickey Gilley - Room Full of Roses
TTITLE14=The Statler Brothers - Fowers on the Wall
EXTD=
EXTT0=
EXTT1=
EXTT2=
EXTT3=
EXTT4=
EXTT5=
EXTT6=
EXTT7=
EXTT8=
EXTT9=
EXTT10=
EXTT11=
EXTT12=
EXTT13=
EXTT14=
PLAYORDER=
